HIERARCHY
ROOT Hips
{
	OFFSET 0.00000 0.00000 0.00000
	CHANNELS 6 Xposition Yposition Zposition Zrotation Yrotation Xrotation 
	JOINT LHipJoint
	{
		OFFSET 0 0 0
		CHANNELS 3 Zrotation Yrotation Xrotation
		JOINT LeftHip
		{
			OFFSET 1.67711 -1.75950 0.70433
			CHANNELS 3 Zrotation Yrotation Xrotation
			JOINT LeftKnee
			{
				OFFSET 2.44937 -6.72958 0.00000
				CHANNELS 3 Zrotation Yrotation Xrotation
				JOINT LeftAnkle
				{
					OFFSET 2.61292 -7.17894 0.00000
					CHANNELS 3 Zrotation Yrotation Xrotation
					JOINT LeftToe
					{
						OFFSET 0.17811 -0.48914 1.82515
						CHANNELS 3 Zrotation Yrotation Xrotation
						End Site
						{
							OFFSET -0.00112 -0.00292 0.95564
						}
					}
				}
			}
		}
	}
	JOINT RHipJoint
	{
		OFFSET 0 0 0
		CHANNELS 3 Zrotation Yrotation Xrotation
		JOINT RightHip
		{
			OFFSET -1.61866 -1.75949 0.70433
			CHANNELS 3 Zrotation Yrotation Xrotation
			JOINT RightKnee
			{
				OFFSET -2.36243 -6.49072 0.00000
				CHANNELS 3 Zrotation Yrotation Xrotation
				JOINT RightAnkle
				{
					OFFSET -2.64336 -7.26259 0.00000
					CHANNELS 3 Zrotation Yrotation Xrotation
					JOINT RightToe
					{
						OFFSET -0.18169 -0.49935 1.90192
						CHANNELS 3 Zrotation Yrotation Xrotation
						End Site
						{
							OFFSET 0.00039 0.00229 0.99264
						}
					}
				}
			}
		}
	}
	JOINT lowerback
	{
		OFFSET 0 0 0
		CHANNELS 3 Zrotation Yrotation Xrotation
		JOINT Chest
		{
			OFFSET -0.01926 2.19655 -0.12599
			CHANNELS 3 Zrotation Yrotation Xrotation
			JOINT Chest2
			{
				OFFSET 0.01663 2.20532 -0.00079
				CHANNELS 3 Zrotation Yrotation Xrotation
				JOINT lowerneck
				{
					OFFSET 0 0 0
					CHANNELS 3 Zrotation Yrotation Xrotation
					JOINT Neck
					{
						OFFSET 0.10604 1.75174 0.14226
						CHANNELS 3 Zrotation Yrotation Xrotation
						JOINT Head
						{
							OFFSET -0.09898 1.68516 -0.48414
							CHANNELS 3 Zrotation Yrotation Xrotation
							End Site
							{
								OFFSET -0.02896 1.78316 -0.18415
							}
						}
					}
				}
				JOINT LeftCollar
				{
					OFFSET 0 0 0
					CHANNELS 3 Zrotation Yrotation Xrotation
					JOINT LeftShoulder
					{
						OFFSET 3.30655 1.16959 -0.30867
CHANNELS 3 Zrotation Xrotation Yrotation
						JOINT LeftElbow
						{
OFFSET 0 -5.352890 -0.000000
CHANNELS 3 Zrotation Xrotation Yrotation
							JOINT LeftWrist
							{
OFFSET 0 -3.277270 -0.000000
CHANNELS 3 Zrotation Xrotation Yrotation
								JOINT lhand
								{
									OFFSET 0 0 0
CHANNELS 3 Zrotation Xrotation Yrotation
									JOINT LFingers
									{
OFFSET 0 -0.544430 0.000090
CHANNELS 3 Zrotation Xrotation Yrotation
										End Site
										{
OFFSET 0 -0.438910 -0.000000
										}
									}
								}
								JOINT LThumb
								{
OFFSET 0 0.000000 0.000000
CHANNELS 3 Zrotation Xrotation Yrotation
									End Site
									{
OFFSET 0 -0.445640 0.445700
									}
								}
							}
						}
					}
				}
				JOINT RightCollar
				{
					OFFSET 0 0 0
					CHANNELS 3 Zrotation Yrotation Xrotation
					JOINT RightShoulder
					{
						OFFSET -3.27172 0.97864 -0.36131
CHANNELS 3 Zrotation Xrotation Yrotation
						JOINT RightElbow
						{
OFFSET 0 -5.520760 -0.005900
CHANNELS 3 Zrotation Xrotation Yrotation
							JOINT RightWrist
							{
OFFSET 0 -3.323640 -0.000000
CHANNELS 3 Zrotation Xrotation Yrotation
								JOINT rhand
								{
									OFFSET 0 0 0
CHANNELS 3 Zrotation Xrotation Yrotation
									JOINT RFingers
									{
OFFSET 0 -0.732230 -0.000000
CHANNELS 3 Zrotation Xrotation Yrotation
										End Site
										{
OFFSET 0 -0.590350 -0.000000
										}
									}
								}
								JOINT RThumb
								{
OFFSET 0 0.000000 0.000000
CHANNELS 3 Zrotation Xrotation Yrotation
									End Site
									{
OFFSET 0 -0.599360 0.599360
									}
								}
							}
						}
					}
				}
			}
		}
	}
}
MOTION
Frames: 7
Frame Time: 0.008333333333333333
21.200351 16.928129 28.391199 365.476823 -47.539365 720.992277 0.000000 0.000000 0.000000 -10.827704 -6.703060 -3.959218 4.173058 12.385660 37.112449 -0.432738 -15.885968 -5.819265 1.824902 -8.489587 -24.212432 0.000000 0.000000 0.000000 14.781949 -0.623001 -29.967487 -1.991340 -8.847931 25.320907 1.207914 19.014599 6.877636 -1.564259 -7.892288 22.387547 -10.838372 -0.919925 2.489764 1.420060 -1.392993 3.027654 7.600561 -0.959945 2.079874 12.247246 8.283007 -9.603712 -9.586307 11.959811 35.013090 -4.272932 5.349469 15.245916 0.000000 0.000000 0.000000 10.337934 -4.877056 -21.150581 45.015255 -50.773399 22.251265 11.600076 -5.631483 -19.448722 0.000000 0.000000 0.000000 -7.125000 0.000000 0.000000 -16.325573 49.094724 1.689408 0.000000 0.000000 0.000000 -15.505907 15.144256 44.848290 -24.757246 -35.954766 -8.146950 -10.778117 -9.997020 -21.435538 0.000000 0.000000 0.000000 7.125000 0.000000 0.000000 11.338851 8.536231 9.727521
20.342754 16.949987 28.505291 364.904080 -51.276700 720.920780 0.000000 0.000000 0.000000 -9.780367 -7.725063 -8.310951 7.127156 15.434111 49.346671 -0.268302 -9.151136 3.020899 1.447346 -7.601228 -21.511036 0.000000 0.000000 0.000000 17.768400 -0.861317 -27.896389 -2.211810 -9.293798 26.718866 0.987736 17.295020 7.542170 -2.109412 -9.090221 26.078022 -10.067433 -1.761097 2.273474 3.024447 -2.498771 4.172974 8.850671 -1.678088 3.696537 12.333661 8.808149 -10.752538 -11.446971 13.138380 33.717899 -4.783340 5.609485 15.268995 0.000000 0.000000 0.000000 7.287960 -0.097744 -10.004596 33.932267 -44.026823 14.068637 15.197627 -3.250759 -20.571311 0.000000 0.000000 0.000000 -7.125000 0.000000 0.000000 -13.356300 50.749370 1.921613 0.000000 0.000000 0.000000 -17.709977 10.866888 48.362274 -26.317674 -37.520626 -9.080438 -9.468864 -6.383283 -21.986123 0.000000 0.000000 0.000000 7.125000 0.000000 0.000000 12.168040 8.122097 10.574596
19.588849 16.908993 28.668970 365.383379 -55.455674 721.554943 0.000000 0.000000 0.000000 -11.578311 -12.695758 -15.650999 10.449006 17.654540 60.978521 -0.489257 -12.496363 2.154994 1.085646 -6.620631 -18.596677 0.000000 0.000000 0.000000 19.015419 1.633827 -27.240391 -2.626749 -10.064742 29.186710 0.992641 17.509885 9.427586 -2.924865 -10.571999 30.850089 -9.158440 -2.139978 0.672916 3.915540 -2.904647 4.435328 9.220533 -1.957585 4.978453 11.542343 8.773998 -11.149634 -10.531348 12.814418 32.819454 -4.256298 5.479169 14.713970 0.000000 0.000000 0.000000 4.422885 2.324461 -2.898909 21.197457 -32.056595 6.155074 13.723641 4.555773 -21.212564 0.000000 0.000000 0.000000 -7.125000 0.000000 0.000000 -15.036096 51.141738 2.319639 0.000000 0.000000 0.000000 -18.867097 7.683320 48.312480 -28.889199 -39.921194 -10.689817 -11.155987 -8.050828 -21.502903 0.000000 0.000000 0.000000 7.125000 0.000000 0.000000 11.101700 8.430895 9.540039
18.820724 16.930802 28.850716 364.855828 -61.112306 721.945514 0.000000 0.000000 0.000000 -13.333475 -12.429107 -24.436212 13.567568 18.975826 70.877863 -0.483310 -12.642158 1.155917 0.398657 -4.053419 -11.227088 0.000000 0.000000 0.000000 20.911286 4.250257 -22.953656 -2.440578 -9.728953 28.103561 0.978682 17.465636 9.882909 -3.764695 -11.840475 35.170028 -7.740496 -1.893105 -0.172570 4.130410 -2.563239 4.724566 8.618679 -1.778523 5.615344 11.262215 8.781664 -11.878691 -9.221131 12.333995 32.740742 -3.716579 5.366028 14.626506 0.000000 0.000000 0.000000 2.158781 4.546320 2.507591 13.102926 -21.436262 2.491870 6.401807 14.199578 -22.181223 0.000000 0.000000 0.000000 -7.125000 0.000000 0.000000 -22.430475 50.883928 3.399679 0.000000 0.000000 0.000000 -17.864632 5.922343 45.738891 -31.124604 -41.837875 -12.152902 -14.881454 -14.335474 -20.562442 0.000000 0.000000 0.000000 7.125000 0.000000 0.000000 8.709688 8.962753 7.334004
18.135464 16.941724 28.999962 357.569406 -64.094377 727.701948 0.000000 0.000000 0.000000 -11.454217 -11.714326 -36.191511 17.722833 19.874116 83.328397 -0.771657 -15.780842 1.869951 0.139380 -2.403014 -6.621026 0.000000 0.000000 0.000000 25.945511 5.890240 -16.326009 -1.799674 -8.435743 24.045513 1.300936 19.692917 7.572358 -4.007446 -12.169920 36.336309 -3.355925 -1.573561 1.270692 4.897798 -2.351282 4.798418 6.950697 -1.481693 4.622708 11.474083 8.171075 -12.949044 -9.618160 11.379141 32.378158 -4.054702 4.901154 14.611799 0.000000 0.000000 0.000000 -0.680249 7.417652 2.166319 10.895303 -18.127599 1.743171 -1.404119 18.690806 -24.521314 0.000000 0.000000 0.000000 -7.125000 0.000000 0.000000 -30.974998 51.701715 5.558030 0.000000 0.000000 0.000000 -16.867396 6.152351 43.319032 -33.510235 -43.718544 -13.773417 -16.157528 -15.370035 -20.509336 0.000000 0.000000 0.000000 7.125000 0.000000 0.000000 7.891435 8.864062 6.646937
17.485674 16.904626 29.222061 353.069427 -65.890394 730.955401 0.000000 0.000000 0.000000 -11.188384 -13.292037 -48.861725 21.895009 19.913291 95.548335 -0.959122 -17.708965 1.397682 0.064648 -1.637226 -4.504117 0.000000 0.000000 0.000000 28.375539 4.713783 -9.394053 -1.116019 -6.710896 18.861572 1.122631 18.416041 8.513758 -4.451893 -12.737785 38.396073 -0.130479 -1.222890 3.239430 5.124720 -1.888627 4.580321 5.397362 -1.110453 3.095806 11.030822 7.524152 -12.993167 -10.120367 10.674049 32.010224 -4.308731 4.479632 14.350760 0.000000 0.000000 0.000000 -4.253427 9.473933 -0.684112 11.840199 -19.564581 2.048507 -0.358269 15.734897 -24.850108 0.000000 0.000000 0.000000 -7.125000 0.000000 0.000000 -30.233104 52.160510 5.762764 0.000000 0.000000 0.000000 -17.325694 7.572906 44.268384 -35.799473 -45.373768 -15.379886 -15.005210 -15.284387 -19.284022 0.000000 0.000000 0.000000 7.125000 0.000000 0.000000 8.584219 10.242882 7.002213
16.762802 16.953379 29.403957 351.169098 -69.573020 733.279881 0.000000 0.000000 0.000000 -10.976425 -13.897873 -61.933667 23.732630 19.662522 100.972778 -1.157124 -19.575608 0.864226 0.098929 -2.022616 -5.568389 0.000000 0.000000 0.000000 29.221062 4.784835 -4.398762 -0.681779 -5.275602 14.697174 0.975165 17.221561 8.026078 -4.834428 -13.194793 40.102227 0.537301 -0.268083 3.551422 4.480204 -0.536844 4.077080 4.332746 -0.376177 2.248565 9.979114 6.772218 -13.430334 -8.250901 9.182003 32.502497 -3.623017 3.916168 14.263230 0.000000 0.000000 0.000000 -5.047342 10.375281 -6.747677 13.469917 -21.971628 2.626643 2.931730 5.953419 -23.125652 0.000000 0.000000 0.000000 -7.125000 0.000000 0.000000 -26.162437 51.186838 4.234496 0.000000 0.000000 0.000000 -15.347883 7.620241 43.450973 -33.193557 -43.476845 -13.555547 -13.399262 -12.801151 -21.135718 0.000000 0.000000 0.000000 7.125000 0.000000 0.000000 9.673654 8.555638 8.249387
